<?xml version="1.0" encoding="UTF-8" standalone="no"?>
<!-- Created with Inkscape (http://www.inkscape.org/) -->

<svg
   xmlns:dc="http://purl.org/dc/elements/1.1/"
   xmlns:cc="http://creativecommons.org/ns#"
   xmlns:rdf="http://www.w3.org/1999/02/22-rdf-syntax-ns#"
   xmlns:svg="http://www.w3.org/2000/svg"
   xmlns="http://www.w3.org/2000/svg"
   xmlns:sodipodi="http://sodipodi.sourceforge.net/DTD/sodipodi-0.dtd"
   xmlns:inkscape="http://www.inkscape.org/namespaces/inkscape"
   width="365.62958"
   height="367.73712"
   id="svg3118"
   version="1.1"
   inkscape:version="0.92.4 5da689c313, 2019-01-14"
   sodipodi:docname="diceware logo.svg">
  <title
     id="title3948">Six Sided Dice</title>
  <defs
     id="defs3120" />
  <sodipodi:namedview
     id="base"
     pagecolor="#ffffff"
     bordercolor="#666666"
     borderopacity="1.0"
     inkscape:pageopacity="0.0"
     inkscape:pageshadow="2"
     inkscape:zoom="1.4"
     inkscape:cx="13.468931"
     inkscape:cy="174.92742"
     inkscape:document-units="px"
     inkscape:current-layer="layer1"
     showgrid="false"
     inkscape:window-width="2560"
     inkscape:window-height="1364"
     inkscape:window-x="0"
     inkscape:window-y="0"
     inkscape:window-maximized="1" />
  <metadata
     id="metadata3123">
    <rdf:RDF>
      <cc:Work
         rdf:about="">
        <dc:format>image/svg+xml</dc:format>
        <dc:type
           rdf:resource="http://purl.org/dc/dcmitype/StillImage" />
        <dc:title>Six Sided Dice</dc:title>
        <cc:license
           rdf:resource="http://creativecommons.org/licenses/publicdomain/" />
        <dc:creator>
          <cc:Agent>
            <dc:title>Brian Burger/Wirelizard Design</dc:title>
          </cc:Agent>
        </dc:creator>
        <dc:description>Simple six-sided dice (d6).</dc:description>
      </cc:Work>
      <cc:License
         rdf:about="http://creativecommons.org/licenses/publicdomain/">
        <cc:permits
           rdf:resource="http://creativecommons.org/ns#Reproduction" />
        <cc:permits
           rdf:resource="http://creativecommons.org/ns#Distribution" />
        <cc:permits
           rdf:resource="http://creativecommons.org/ns#DerivativeWorks" />
      </cc:License>
    </rdf:RDF>
  </metadata>
  <g
     inkscape:label="Layer 1"
     inkscape:groupmode="layer"
     id="layer1"
     transform="translate(-117.14568,-272.36218)">
    <path
       style="fill:#3c91e6;fill-opacity:1;stroke:none"
       d="m 328.73382,272.3636 c -1.05927,-0.0232 -2.20357,0.23919 -3.65455,0.73073 l -160.79556,47.21556 c -1.33801,0.31267 -1.26028,0.67334 -0.14622,1.53494 l 142.74266,113.94558 c 2.62831,2.17905 3.86462,2.44919 7.52816,1.31556 l 160.06466,-55.47448 c 3.67222,-1.34944 3.9274,-1.6778 0.14636,-4.16615 l -140.47692,-102.763 c -2.16883,-1.52841 -3.64337,-2.30485 -5.40853,-2.33874 z m -18.34543,13.81379 c 3.20207,-0.0232 6.58238,0.32827 10.08633,1.09626 14.01565,3.07305 23.95606,11.63834 22.1459,19.07642 -1.81016,7.43786 -14.63518,10.96656 -28.65073,7.89351 -14.01573,-3.07306 -23.95615,-11.56508 -22.14599,-19.00315 1.35756,-5.57855 8.95859,-9.01556 18.56449,-9.06304 z m -90.63028,27.55454 c 3.20207,-0.0232 6.65543,0.32813 10.15939,1.09636 14.01563,3.07305 23.883,11.56517 22.07284,19.00303 -1.81016,7.43809 -14.63518,11.03962 -28.65083,7.96668 -14.01563,-3.07296 -23.883,-11.63802 -22.07284,-19.07611 1.35768,-5.57855 8.88554,-8.9426 18.49144,-8.98996 z m 137.33413,7.01643 c 3.20197,-0.0232 6.65552,0.40133 10.15938,1.16953 14.01565,3.07284 23.88292,11.56508 22.07286,19.00305 -1.81016,7.43796 -14.6352,10.96655 -28.65083,7.89351 -14.01574,-3.07286 -23.88311,-11.56508 -22.07295,-19.00305 1.35768,-5.57834 8.88554,-9.01556 18.49154,-9.06304 z m -202.89478,8.84384 c -0.2935,0.0748 -0.38831,0.53334 -0.58471,1.4619 l -36.25216,181.3334 c -0.42235,1.88625 -0.3482,2.35359 1.3887,3.8739 l 137.69949,118.69623 c 3.20287,3.06125 3.87571,3.02176 4.31224,-0.73091 l 40.12587,-183.89155 c 0.84081,-2.50541 -0.0249,-3.8837 -1.46177,-5.04323 L 155.65922,330.46938 c -0.74001,-0.62428 -1.16824,-0.95149 -1.46176,-0.87718 z m 111.82599,20.68413 c 3.20205,-0.0232 6.65541,0.32815 10.15938,1.09647 14.01563,3.07305 23.883,11.56506 22.07284,19.00303 -1.81017,7.43809 -14.63519,10.96657 -28.65092,7.89372 -14.01555,-3.07305 -23.88292,-11.56517 -22.07276,-19.00314 1.35758,-5.57867 8.88556,-8.9426 18.49146,-8.99008 z m 138.79588,6.06641 c 3.20196,-0.0232 6.65543,0.32815 10.15939,1.09626 14.01564,3.07306 23.88301,11.56506 22.07284,19.00315 -1.81016,7.43807 -14.63518,11.03983 -28.65092,7.96678 -14.01564,-3.07306 -23.88301,-11.63834 -22.07285,-19.07633 1.35768,-5.57834 8.88555,-8.94227 18.49154,-8.98986 z m -241.70508,6.65102 c 0.54012,-0.0537 1.13143,-0.0294 1.68102,0 6.59574,0.3492 13.73799,6.53058 17.90683,16.44522 5.55832,13.21928 3.70524,28.05511 -4.09299,33.10909 -7.79822,5.05394 -18.63405,-1.54464 -24.19237,-14.76405 -5.55834,-13.21939 -3.70537,-28.05513 4.09296,-33.10907 1.46206,-0.94771 2.98451,-1.52074 4.60455,-1.68119 z m 150.63628,23.82707 c 3.20197,-0.0231 6.65543,0.32816 10.15929,1.09646 14.01574,3.07285 23.88311,11.56508 22.07295,19.00304 -1.81027,7.43799 -14.63529,10.96658 -28.65083,7.89362 -14.01574,-3.07306 -23.88301,-11.56506 -22.07284,-19.00315 1.35757,-5.57854 8.88554,-8.94248 18.49143,-8.98997 z m 168.17766,5.04311 c -0.30728,0.0632 -0.73942,0.17087 -1.24251,0.36543 L 316.3086,449.2388 c -3.34798,1.3784 -3.24758,1.94111 -3.80066,4.45841 l -40.05263,183.30694 c -0.13597,2.69876 -1.13022,3.92694 2.04649,2.48516 l 161.96504,-60.5177 c 3.14278,-1.50358 3.74517,-1.76771 4.09298,-4.82382 l 42.02614,-180.749 c 0.34821,-1.27333 0.26378,-1.72718 -0.65777,-1.53485 z m -26.67749,29.74715 c 4.6284,0.0748 8.26039,2.32623 9.86707,6.65125 3.21314,8.64971 -2.97453,22.49403 -13.88699,30.91646 -10.91249,8.42243 -22.36787,8.21145 -25.5811,-0.43849 -3.21335,-8.64982 2.97443,-22.49414 13.88679,-30.91656 5.45624,-4.21132 11.08572,-6.28729 15.71423,-6.21266 z m -199.24044,15.8604 c 6.67889,0.17076 13.96524,6.44869 18.19914,16.51817 5.55832,13.21939 3.7783,28.05513 -4.01993,33.10909 -7.79822,5.05396 -18.63405,-1.61749 -24.19239,-14.83688 -5.55832,-13.21941 -3.70535,-27.98228 4.09298,-33.03624 1.46217,-0.94772 2.98411,-1.52094 4.60455,-1.68118 0.43892,-0.0453 0.87044,-0.0842 1.31565,-0.0726 z m -58.69036,21.19576 c 6.67878,0.17077 13.96513,6.44879 18.19913,16.51807 5.55832,13.21939 3.77831,28.05513 -4.01992,33.1093 -7.79823,5.05396 -18.63406,-1.61759 -24.19238,-14.83699 -5.55832,-13.21941 -3.70524,-27.98217 4.09297,-33.03613 1.46206,-0.94772 2.9841,-1.52095 4.60454,-1.68119 0.43892,-0.0453 0.87046,-0.0842 1.31566,-0.0726 z m -57.81332,20.97648 c 0.53992,-0.0537 1.13133,-0.0273 1.68094,0 6.59574,0.3492 13.66493,6.60374 17.83376,16.51806 5.55832,13.2194 3.7784,27.98227 -4.01983,33.03624 -7.79832,5.05395 -18.63416,-1.54463 -24.19248,-14.76404 -5.55834,-13.2194 -3.70526,-28.05514 4.09296,-33.10908 1.46217,-0.94772 2.98451,-1.52075 4.60465,-1.68118 z m 254.05708,17.54125 c 4.52899,0.1474 8.13934,2.39381 9.72076,6.65123 3.21335,8.64984 -3.04758,22.49415 -13.95994,30.91648 -10.91248,8.42242 -22.36786,8.21154 -25.5811,-0.43849 -3.21335,-8.64972 3.04758,-22.49405 13.95994,-30.91648 4.77421,-3.68482 9.64143,-5.73762 13.88689,-6.13946 0.68233,-0.0653 1.32645,-0.0937 1.97345,-0.0726 z m -164.23078,58.6906 c 0.54,-0.0537 1.13132,-0.0273 1.68102,0 6.59564,0.34922 13.73799,6.53049 17.90681,16.44492 5.55834,13.21929 3.70526,28.05543 -4.09297,33.10931 -7.79824,5.05403 -18.56101,-1.54465 -24.11934,-14.76395 -5.55833,-13.2194 -3.7784,-28.05534 4.01983,-33.10941 1.46216,-0.94739 2.9845,-1.52063 4.60465,-1.68087 z m 97.28131,19.00315 c 4.62849,0.0748 8.26029,2.25306 9.86697,6.57796 3.21324,8.64972 -2.97442,22.49393 -13.8869,30.91648 -10.91237,8.4224 -22.36785,8.28435 -25.5811,-0.36546 -3.21323,-8.64965 2.97443,-22.49422 13.88691,-30.91664 5.45623,-4.21111 11.08562,-6.28697 15.71412,-6.21234 z"
       id="path3924"
       sodipodi:nodetypes="cccccccccccssssccssssccssssccccccccccccssssccssssccsssssccssssccccccccccccssssccsssssccsssssccsssssccsssssccsssssccssssc" />
    <path
       style="fill:#4357ad;fill-opacity:0;stroke-width:0.71428573"
       d="M 119.32384,106.79019 C 60.929174,60.171351 46.904757,48.659283 47.951689,48.203721 51.378883,46.712412 210.10239,0.52398405 211.79998,0.52398405 c 1.22526,0 4.01898,1.48629685 7.53387,4.00811395 24.88571,17.854679 140.27794,102.682932 140.27794,103.122482 0,0.30796 -0.5625,0.72255 -1.25,0.92132 -0.6875,0.19876 -37.49106,12.93268 -81.7857,28.29759 -44.29463,15.36492 -81.44502,27.93621 -82.55642,27.93621 -1.60505,0 -16.97046,-11.93499 -74.69583,-58.01951 z m 102.11372,35.08604 c 11.8993,-4.4521 9.98316,-15.73797 -3.85832,-22.72513 -6.67188,-3.36796 -11.85733,-4.58754 -19.75316,-4.64582 -8.59287,-0.0634 -12.87319,1.04972 -16.7297,4.35075 -3.64352,3.11872 -4.30047,6.01187 -2.36083,10.39676 4.89536,11.06677 28.33932,17.9972 42.70201,12.62344 z m 91.94655,-30.83169 c 12.92165,-5.91573 6.97154,-19.139399 -11.27232,-25.051877 -9.59291,-3.108872 -20.65771,-2.8645 -27.50948,0.607557 -5.43918,2.756243 -7.11121,7.529793 -4.53734,12.953836 2.34438,4.940404 11.79344,10.667814 21.06886,12.770574 7.09876,1.60931 17.20958,1.02762 22.25028,-1.28009 z m -142.17837,-4.92233 c 6.78208,-1.47371 11.21099,-6.487933 10.25091,-11.605619 -0.60009,-3.198743 -5.70375,-8.861043 -10.16747,-11.2804 -6.9399,-3.761457 -12.78569,-5.187321 -21.32025,-5.200278 -8.97303,-0.01364 -13.95486,1.298114 -16.98207,4.47145 -4.2897,4.496778 -3.95753,9.40895 0.96942,14.3359 8.46683,8.466827 23.61793,12.241017 37.24946,9.278947 z m 94.14393,-30.366154 c 10.13139,-4.515829 9.41471,-13.866758 -1.60886,-20.991636 -6.18415,-3.997007 -12.27424,-5.766711 -21.32672,-6.197271 -9.66219,-0.459559 -14.70642,0.835747 -18.66319,4.792518 -2.21142,2.211418 -2.70837,3.219241 -2.69879,5.473141 0.0324,7.620952 10.00735,15.360676 23.46403,18.206169 4.97025,1.050986 17.3009,0.291671 20.83353,-1.282921 z M 128.53933,68.376952 c 4.03876,-2.015241 6.78675,-5.573828 6.78675,-8.788701 0,-2.842418 -2.8817,-7.654339 -6.01527,-10.044428 -7.28683,-5.557943 -18.30621,-8.696592 -28.54228,-8.129701 -7.677273,0.425181 -11.734214,1.880496 -14.719074,5.280064 -2.445446,2.785209 -2.886528,6.765939 -1.126763,10.168949 1.581589,3.058454 6.557639,7.179789 11.386686,9.43084 7.347881,3.425202 11.401411,4.225451 20.445271,4.036308 7.11968,-0.1489 8.69006,-0.409192 11.78468,-1.953331 z m 89.00545,-26.752816 c 1.80958,-0.640441 4.2788,-2.131033 5.48715,-3.312424 6.1295,-5.992721 2.28552,-14.176979 -9.37167,-19.953349 -20.12311,-9.9713904 -44.92851,-3.242154 -38.32587,10.397083 2.8298,5.845587 11.56516,11.261698 21.7774,13.502457 6.05772,1.32918 15.73475,1.029029 20.43299,-0.633767 z"
       id="path4519"
       inkscape:connector-curvature="0"
       transform="translate(117.14568,272.36218)" />
    <path
       style="fill:#4357ad;fill-opacity:0;stroke-width:0.71428573"
       d="M 119.32384,106.79019 C 60.929174,60.171351 46.904757,48.659283 47.951689,48.203721 51.378883,46.712412 210.10239,0.52398405 211.79998,0.52398405 c 1.22526,0 4.01898,1.48629685 7.53387,4.00811395 24.88571,17.854679 140.27794,102.682932 140.27794,103.122482 0,0.30796 -0.5625,0.72255 -1.25,0.92132 -0.6875,0.19876 -37.49106,12.93268 -81.7857,28.29759 -44.29463,15.36492 -81.44502,27.93621 -82.55642,27.93621 -1.60505,0 -16.97046,-11.93499 -74.69583,-58.01951 z m 102.11372,35.08604 c 11.8993,-4.4521 9.98316,-15.73797 -3.85832,-22.72513 -6.67188,-3.36796 -11.85733,-4.58754 -19.75316,-4.64582 -8.59287,-0.0634 -12.87319,1.04972 -16.7297,4.35075 -3.64352,3.11872 -4.30047,6.01187 -2.36083,10.39676 4.89536,11.06677 28.33932,17.9972 42.70201,12.62344 z m 91.94655,-30.83169 c 12.92165,-5.91573 6.97154,-19.139399 -11.27232,-25.051877 -9.59291,-3.108872 -20.65771,-2.8645 -27.50948,0.607557 -5.43918,2.756243 -7.11121,7.529793 -4.53734,12.953836 2.34438,4.940404 11.79344,10.667814 21.06886,12.770574 7.09876,1.60931 17.20958,1.02762 22.25028,-1.28009 z m -142.17837,-4.92233 c 6.78208,-1.47371 11.21099,-6.487933 10.25091,-11.605619 -0.60009,-3.198743 -5.70375,-8.861043 -10.16747,-11.2804 -6.9399,-3.761457 -12.78569,-5.187321 -21.32025,-5.200278 -8.97303,-0.01364 -13.95486,1.298114 -16.98207,4.47145 -4.2897,4.496778 -3.95753,9.40895 0.96942,14.3359 8.46683,8.466827 23.61793,12.241017 37.24946,9.278947 z m 94.14393,-30.366154 c 10.13139,-4.515829 9.41471,-13.866758 -1.60886,-20.991636 -6.18415,-3.997007 -12.27424,-5.766711 -21.32672,-6.197271 -9.66219,-0.459559 -14.70642,0.835747 -18.66319,4.792518 -2.21142,2.211418 -2.70837,3.219241 -2.69879,5.473141 0.0324,7.620952 10.00735,15.360676 23.46403,18.206169 4.97025,1.050986 17.3009,0.291671 20.83353,-1.282921 z M 128.53933,68.376952 c 4.03876,-2.015241 6.78675,-5.573828 6.78675,-8.788701 0,-2.842418 -2.8817,-7.654339 -6.01527,-10.044428 -7.28683,-5.557943 -18.30621,-8.696592 -28.54228,-8.129701 -7.677273,0.425181 -11.734214,1.880496 -14.719074,5.280064 -2.445446,2.785209 -2.886528,6.765939 -1.126763,10.168949 1.581589,3.058454 6.557639,7.179789 11.386686,9.43084 7.347881,3.425202 11.401411,4.225451 20.445271,4.036308 7.11968,-0.1489 8.69006,-0.409192 11.78468,-1.953331 z m 89.00545,-26.752816 c 1.80958,-0.640441 4.2788,-2.131033 5.48715,-3.312424 6.1295,-5.992721 2.28552,-14.176979 -9.37167,-19.953349 -20.12311,-9.9713904 -44.92851,-3.242154 -38.32587,10.397083 2.8298,5.845587 11.56516,11.261698 21.7774,13.502457 6.05772,1.32918 15.73475,1.029029 20.43299,-0.633767 z"
       id="path4521"
       inkscape:connector-curvature="0"
       transform="translate(117.14568,272.36218)" />
    <path
       style="fill:#4357ad;fill-opacity:0;stroke-width:0.71428573"
       d="m 155.32608,366.82633 c 0,-2.55442 40.93485,-187.53682 41.66158,-188.26647 0.90393,-0.90757 167.6278,-58.98459 168.06737,-58.54502 0.19563,0.19564 -8.9173,39.71995 -42.21712,183.10266 -0.19443,0.83714 -1.40162,2.01666 -2.68266,2.62115 -1.28104,0.60448 -36.72203,13.9495 -78.75774,29.6556 -42.03572,15.70609 -78.59822,29.37824 -81.25,30.38255 -2.82818,1.07111 -4.82143,1.50501 -4.82143,1.04953 z m 44.65643,-23.04736 c 6.42253,-3.1181 13.9394,-10.94009 17.28817,-17.98989 8.35909,-17.5975 -1.36476,-28.93188 -17.82748,-20.78019 -16.24929,8.04602 -25.88686,29.16835 -17.4624,38.27178 2.28989,2.47444 3.8959,2.96247 9.07314,2.75711 3.41156,-0.13532 5.79857,-0.73921 8.92857,-2.25881 z m 66.69428,-77.65702 c 5.52807,-2.68256 13.15023,-9.97615 16.36275,-15.6574 2.87986,-5.09296 4.71572,-12.14897 4.1239,-15.84997 -1.08604,-6.79172 -4.60747,-9.79827 -11.48022,-9.80165 -15.46486,-0.008 -33.57993,22.00637 -29.65232,36.03438 2.27563,8.12775 10.45832,10.21828 20.64589,5.27464 z m 62.11962,-75.67072 c 10.55833,-5.19785 19.29994,-17.48271 19.89552,-27.95982 0.34886,-6.13694 -0.8934,-9.20577 -4.79442,-11.8439 -3.6032,-2.43672 -10.03788,-1.92924 -16.42858,1.29566 -13.87712,7.00273 -23.66471,25.74 -18.61547,35.63732 3.18035,6.23402 10.86435,7.34012 19.94295,2.87074 z"
       id="path4523"
       inkscape:connector-curvature="0"
       transform="translate(117.14568,272.36218)" />
  </g>
</svg>
