<?xml version="1.0" encoding="UTF-8" standalone="no"?>
<!-- Created with Inkscape (http://www.inkscape.org/) -->

<svg
   xmlns:dc="http://purl.org/dc/elements/1.1/"
   xmlns:cc="http://creativecommons.org/ns#"
   xmlns:rdf="http://www.w3.org/1999/02/22-rdf-syntax-ns#"
   xmlns:svg="http://www.w3.org/2000/svg"
   xmlns="http://www.w3.org/2000/svg"
   xmlns:sodipodi="http://sodipodi.sourceforge.net/DTD/sodipodi-0.dtd"
   xmlns:inkscape="http://www.inkscape.org/namespaces/inkscape"
   width="82mm"
   height="74mm"
   viewBox="0 0 82 74"
   version="1.1"
   id="svg4581"
   sodipodi:docname="dualdice.svg"
   inkscape:version="0.92.4 5da689c313, 2019-01-14">
  <defs
     id="defs4575" />
  <sodipodi:namedview
     id="base"
     pagecolor="#ffffff"
     bordercolor="#666666"
     borderopacity="1.0"
     inkscape:pageopacity="0.0"
     inkscape:pageshadow="2"
     inkscape:zoom="1.4"
     inkscape:cx="57.583231"
     inkscape:cy="146.07198"
     inkscape:document-units="mm"
     inkscape:current-layer="layer1"
     showgrid="false"
     inkscape:window-width="1278"
     inkscape:window-height="668"
     inkscape:window-x="579"
     inkscape:window-y="390"
     inkscape:window-maximized="0" />
  <metadata
     id="metadata4578">
    <rdf:RDF>
      <cc:Work
         rdf:about="">
        <dc:format>image/svg+xml</dc:format>
        <dc:type
           rdf:resource="http://purl.org/dc/dcmitype/StillImage" />
        <dc:title />
      </cc:Work>
    </rdf:RDF>
  </metadata>
  <g
     inkscape:label="Layer 1"
     inkscape:groupmode="layer"
     id="layer1"
     transform="translate(0,-223)">
    <path
       inkscape:connector-curvature="0"
       style="fill:#3c91e6;fill-opacity:1;stroke:none;stroke-width:0.1219136"
       d="m 25.799545,252.16008 c -0.129137,-0.003 -0.268643,0.0292 -0.44554,0.0891 l -19.6031645,5.75621 c -0.163122,0.0381 -0.153647,0.0821 -0.01783,0.18713 l 17.4022725,13.89151 c 0.320427,0.26566 0.471149,0.2986 0.917785,0.16039 l 19.514064,-6.76309 c 0.447691,-0.16452 0.478803,-0.20455 0.01786,-0.50791 L 26.458948,252.4452 c -0.264408,-0.18634 -0.444176,-0.28099 -0.659372,-0.28512 z m -2.236558,1.68408 c 0.390377,-0.003 0.802483,0.04 1.229662,0.13365 1.708699,0.37465 2.92057,1.41888 2.699889,2.32568 -0.220684,0.90677 -1.784228,1.33697 -3.492914,0.96232 -1.708712,-0.37464 -2.920583,-1.40994 -2.699899,-2.31674 0.165505,-0.6801 1.092172,-1.09912 2.263262,-1.10491 z m -11.049062,3.35928 c 0.390376,-0.003 0.811387,0.04 1.238567,0.13366 1.708695,0.37465 2.911662,1.40995 2.69098,2.31673 -0.220684,0.9068 -1.784229,1.34588 -3.492927,0.97124 -1.708695,-0.37464 -2.911661,-1.41883 -2.69098,-2.32563 0.16552,-0.6801 1.08327,-1.09023 2.25436,-1.096 z m 16.742897,0.8554 c 0.390366,-0.003 0.8114,0.0489 1.23857,0.14258 1.708695,0.37462 2.911652,1.40994 2.690982,2.31673 -0.220684,0.90679 -1.784231,1.33697 -3.492929,0.96232 -1.708708,-0.37462 -2.911673,-1.40994 -2.69099,-2.31673 0.165521,-0.68007 1.083268,-1.09912 2.254367,-1.1049 z m -24.7356335,1.07818 c -0.03578,0.009 -0.04734,0.065 -0.07128,0.17822 l -4.41963194,22.10701 c -0.05149,0.22996 -0.04245,0.28694 0.169302,0.47228 L 16.98702,296.36522 c 0.390473,0.37321 0.472502,0.3684 0.52572,-0.0891 l 4.891891,-22.41888 c 0.102506,-0.30544 -0.003,-0.47347 -0.17821,-0.61484 L 4.6993975,259.24396 c -0.09022,-0.0761 -0.142424,-0.116 -0.178209,-0.10694 z m 13.6331105,2.52168 c 0.390374,-0.003 0.811385,0.04 1.238567,0.13367 1.708696,0.37465 2.911662,1.40994 2.690978,2.31673 -0.220684,0.9068 -1.784229,1.33697 -3.492937,0.96235 -1.708686,-0.37464 -2.911652,-1.40995 -2.690968,-2.31674 0.165508,-0.68012 1.08327,-1.09023 2.25436,-1.09601 z m 16.921107,0.73957 c 0.390364,-0.003 0.81139,0.04 1.238568,0.13366 1.708697,0.37464 2.911662,1.40993 2.690979,2.31673 -0.220681,0.90681 -1.784229,1.34591 -3.492939,0.97126 -1.708693,-0.37464 -2.911661,-1.41887 -2.69098,-2.32566 0.165518,-0.68007 1.083273,-1.09018 2.254372,-1.09599 z m -29.4671385,0.81085 c 0.06585,-0.007 0.137935,-0.004 0.204937,0 0.804113,0.0426 1.67485,0.79617 2.183088,2.0049 0.6776354,1.61161 0.4517204,3.4203 -0.498992,4.03645 -0.950709,0.61614 -2.271744,-0.18832 -2.949379,-1.79994 -0.677637,-1.61162 -0.451735,-3.4203 0.498987,-4.03644 0.178247,-0.11555 0.363853,-0.1854 0.561359,-0.20497 z m 18.3646125,2.90485 c 0.390363,-0.003 0.811386,0.04 1.238554,0.13367 1.708712,0.37463 2.911677,1.40994 2.690994,2.31673 -0.220695,0.90679 -1.784242,1.33698 -3.492925,0.96234 -1.708711,-0.37465 -2.911665,-1.40994 -2.69098,-2.31674 0.165504,-0.6801 1.083267,-1.09021 2.254357,-1.096 z m 20.503145,0.61482 c -0.03746,0.008 -0.09015,0.0208 -0.151481,0.0445 l -20.039801,6.95023 c -0.408165,0.16804 -0.395923,0.23664 -0.463351,0.54354 l -4.882962,22.34761 c -0.01658,0.32901 -0.137788,0.47875 0.249494,0.30297 l 19.745742,-7.37793 c 0.383149,-0.1833 0.456592,-0.2155 0.498994,-0.58808 l 5.123555,-22.03577 c 0.04245,-0.15523 0.03216,-0.21057 -0.08019,-0.18712 z m -3.252348,3.62658 c 0.564261,0.009 1.007049,0.2836 1.202928,0.81088 0.391727,1.05452 -0.362635,2.74233 -1.69301,3.76914 -1.330383,1.02681 -2.72695,1.00109 -3.118686,-0.0535 -0.391753,-1.05453 0.362622,-2.74234 1.692989,-3.76915 0.665186,-0.51342 1.351497,-0.76651 1.915779,-0.75741 z m -24.290123,1.9336 c 0.814248,0.0208 1.702554,0.78619 2.218724,2.01379 0.677635,1.61162 0.460625,3.42031 -0.490084,4.03645 -0.95071,0.61615 -2.271745,-0.19719 -2.949382,-1.80881 -0.677634,-1.61163 -0.451732,-3.41143 0.49899,-4.02757 0.178259,-0.11554 0.363802,-0.18543 0.561356,-0.20496 0.05351,-0.005 0.106118,-0.0102 0.160396,-0.009 z m -7.1551531,2.58405 c 0.8142361,0.0208 1.7025381,0.7862 2.2187211,2.01378 0.677635,1.61163 0.460628,3.42031 -0.490082,4.03647 -0.950712,0.61615 -2.2717461,-0.1972 -2.9493811,-1.80882 -0.6776344,-1.61163 -0.4517174,-3.41141 0.49899,-4.02756 0.178244,-0.11554 0.363803,-0.18542 0.561356,-0.20496 0.05351,-0.005 0.106121,-0.0102 0.160396,-0.009 z m -7.0482304,2.55732 c 0.06582,-0.007 0.137925,-0.003 0.20493,0 0.80411,0.0426 1.665942,0.80509 2.174177,2.01378 0.677635,1.61162 0.460638,3.41142 -0.490072,4.02757 -0.950721,0.61614 -2.271756,-0.18832 -2.949394,-1.79994 -0.67763602,-1.61162 -0.451719,-3.42031 0.498988,-4.03645 0.178261,-0.11554 0.363855,-0.1854 0.561371,-0.20496 z m 30.9730135,2.13852 c 0.552146,0.018 0.992299,0.29184 1.185093,0.81087 0.391753,1.05454 -0.371536,2.74235 -1.701903,3.76915 -1.330384,1.0268 -2.726947,1.00109 -3.118689,-0.0535 -0.391747,-1.05452 0.371544,-2.74233 1.701911,-3.76914 0.582041,-0.44923 1.175419,-0.6995 1.693,-0.74849 0.08319,-0.008 0.161713,-0.0114 0.240588,-0.009 z m -20.021966,7.15518 c 0.06583,-0.007 0.137926,-0.003 0.20494,0 0.804098,0.0426 1.674847,0.79616 2.183083,2.00486 0.677639,1.61161 0.451722,3.42034 -0.498987,4.03648 -0.950712,0.61615 -2.262839,-0.18832 -2.940477,-1.79993 -0.677637,-1.61162 -0.460637,-3.42033 0.490072,-4.03649 0.178257,-0.1155 0.363851,-0.18538 0.561369,-0.20492 z m 11.859916,2.31675 c 0.564277,0.009 1.007045,0.27467 1.202921,0.80194 0.391734,1.05452 -0.362627,2.74231 -1.693005,3.76914 -1.330368,1.0268 -2.726946,1.00997 -3.118685,-0.0446 -0.391735,-1.05451 0.362625,-2.74235 1.693004,-3.76916 0.66519,-0.51339 1.351488,-0.76647 1.915765,-0.75737 z"
       id="path3924"
       sodipodi:nodetypes="cccccccccccssssccssssccssssccccccccccccssssccssssccsssssccssssccccccccccccssssccsssssccsssssccsssssccsssssccsssssccssssc" />
    <path
       inkscape:connector-curvature="0"
       style="fill:#3c91e6;fill-opacity:1;stroke:none;stroke-width:0.1219136"
       d="m 48.546174,223.80469 c -0.10387,0.0768 -0.194598,0.18749 -0.297815,0.34315 l -11.97927,16.55038 c -0.105664,0.12999 -0.07126,0.15896 0.100436,0.15891 l 22.264354,0.33435 c 0.415994,0.014 0.555345,-0.0522 0.823958,-0.43491 l 11.29254,-17.2921 c 0.25335,-0.40411 0.25345,-0.45481 -0.29674,-0.41259 l -21.211487,0.5747 c -0.323144,0.0145 -0.523243,0.0496 -0.695952,0.17809 z m -0.737936,2.70071 c 0.306999,-0.24116 0.659111,-0.45952 1.054232,-0.64694 1.580565,-0.74955 3.178056,-0.6655 3.558556,0.18668 0.380479,0.85216 -0.59268,2.14935 -2.173237,2.89889 -1.580576,0.74956 -3.172598,0.67257 -3.553098,-0.17961 -0.285377,-0.63913 0.190979,-1.53767 1.113547,-2.25902 z m -6.681653,9.41923 c 0.306996,-0.24115 0.666134,-0.46498 1.061281,-0.65237 1.580563,-0.74955 3.165552,-0.66711 3.546033,0.18505 0.380497,0.85218 -0.587232,2.15639 -2.167789,2.90596 -1.580558,0.74955 -3.170984,0.66007 -3.551484,-0.19211 -0.285366,-0.63914 0.189381,-1.52518 1.111959,-2.24653 z m 13.764033,-9.57118 c 0.30699,-0.24115 0.671613,-0.45794 1.066747,-0.64533 1.580544,-0.74957 3.165536,-0.66711 3.546036,0.18506 0.380486,0.85217 -0.592686,2.14935 -2.173248,2.8989 -1.58056,0.74957 -3.165555,0.66712 -3.546049,-0.18506 -0.285345,-0.63911 0.183938,-1.53221 1.106514,-2.25357 z M 35.9893,242.34576 c -0.0227,0.0291 0.0024,0.0804 0.05271,0.18457 l 10.035704,20.18757 c 0.100028,0.21336 0.142052,0.25289 0.422949,0.26986 l 22.132634,1.16869 c 0.53721,0.0561 0.59913,0.002 0.3612,-0.39225 l -9.853123,-20.72325 c -0.105886,-0.30429 -0.292201,-0.37257 -0.517245,-0.37714 l -22.428446,-0.34255 c -0.117927,-0.005 -0.183629,-0.005 -0.206383,0.0245 z m 12.324639,-6.3501 c 0.306996,-0.24115 0.666141,-0.46498 1.061291,-0.65236 1.580565,-0.74955 3.165544,-0.66712 3.546033,0.18505 0.380497,0.85219 -0.592682,2.14935 -2.173237,2.89893 -1.580557,0.74954 -3.165544,0.66709 -3.546036,-0.18508 -0.285385,-0.63914 0.189381,-1.52519 1.111949,-2.24654 z m 13.834078,-9.77186 c 0.30699,-0.24114 0.66614,-0.46498 1.06128,-0.65238 1.58056,-0.74955 3.16554,-0.66712 3.54604,0.18506 0.3805,0.85219 -0.58721,2.15642 -2.16779,2.90598 -1.58056,0.74954 -3.17101,0.66005 -3.551502,-0.19212 -0.285356,-0.63912 0.189412,-1.52516 1.111972,-2.24654 z m -22.806676,18.67687 c 0.04804,-0.0455 0.106878,-0.0873 0.162068,-0.12543 0.661961,-0.4585 1.811792,-0.39549 2.953528,0.24931 1.522285,0.85973 2.450653,2.42834 2.075939,3.49749 -0.374719,1.06914 -1.911786,1.24152 -3.434075,0.38178 -1.522293,-0.85974 -2.450668,-2.42833 -2.075936,-3.49748 0.07024,-0.20047 0.174262,-0.36931 0.318476,-0.50567 z m 16.300892,-8.94304 c 0.307004,-0.24113 0.666141,-0.46498 1.061281,-0.65236 1.580562,-0.74958 3.165554,-0.66712 3.546041,0.18505 0.380484,0.85218 -0.592685,2.14935 -2.173235,2.8989 -1.580576,0.74956 -3.165544,0.66712 -3.546041,-0.18507 -0.285377,-0.63912 0.189386,-1.52517 1.111954,-2.24652 z m 16.590444,-12.06294 c -0.0249,0.029 -0.0585,0.0716 -0.0925,0.12795 l -11.593792,17.76187 c -0.219929,0.38271 -0.168259,0.42947 -0.03375,0.71343 l 9.816562,20.66142 c 0.18826,0.27035 0.18405,0.46294 0.38274,0.0869 l 11.09944,-17.92011 c 0.19081,-0.37947 0.22918,-0.44989 0.0347,-0.77048 l -9.43543,-20.56208 c -0.0614,-0.14874 -0.10345,-0.1862 -0.17794,-0.0989 z m -0.35231,4.85858 c 0.45181,-0.33814 0.96996,-0.3921 1.44759,-0.095 0.95521,0.59416 1.3917,2.39062 0.96808,4.0169 -0.42361,1.62629 -1.54377,2.46073 -2.49901,1.86655 -0.95524,-0.59416 -1.39171,-2.39063 -0.96811,-4.0169 0.2118,-0.81315 0.59964,-1.43336 1.05145,-1.77154 z m -18.025445,16.39611 c 0.656646,-0.48192 1.827591,-0.42034 2.987146,0.23453 1.522293,0.85974 2.457699,2.42289 2.082988,3.49204 -0.374716,1.06915 -1.917221,1.2345 -3.439509,0.37476 -1.522297,-0.85974 -2.445232,-2.42131 -2.070505,-3.49046 0.07025,-0.20047 0.174207,-0.3693 0.318479,-0.50567 0.03893,-0.0371 0.07765,-0.0731 0.12142,-0.10518 z m -4.07679,6.42287 c 0.656633,-0.48191 1.827586,-0.42032 2.987146,0.23454 1.522288,0.85974 2.457696,2.42288 2.082996,3.49205 -0.374714,1.06915 -1.917224,1.23449 -3.439517,0.37475 -1.522291,-0.85974 -2.445205,-2.42131 -2.070497,-3.49045 0.07024,-0.20047 0.174209,-0.36931 0.318479,-0.50567 0.03893,-0.0371 0.07766,-0.073 0.121422,-0.10518 z m -4.008596,6.33629 c 0.04807,-0.0454 0.107034,-0.087 0.162063,-0.12542 0.661958,-0.4585 1.81021,-0.38298 2.951919,0.26179 1.522291,0.85974 2.452267,2.41586 2.077553,3.485 -0.374724,1.06916 -1.911789,1.24153 -3.434083,0.3818 -1.522293,-0.85974 -2.450655,-2.42835 -2.075939,-3.49749 0.07025,-0.20047 0.174265,-0.36932 0.318487,-0.50568 z M 71.572267,240.6424 c 0.44764,-0.32374 0.96334,-0.37656 1.43349,-0.0841 0.95524,0.59416 1.38466,2.39608 0.96105,4.02235 -0.42362,1.62628 -1.54377,2.46073 -2.49901,1.86654 -0.95523,-0.59415 -1.38465,-2.39607 -0.96105,-4.02235 0.18533,-0.7115 0.5014,-1.27259 0.88072,-1.62813 0.0609,-0.0572 0.12089,-0.10801 0.18484,-0.15426 z m -11.454213,17.91303 c 0.04806,-0.0455 0.107032,-0.0871 0.162071,-0.12544 0.661945,-0.45849 1.811782,-0.3955 2.953502,0.2493 1.52229,0.85972 2.45068,2.42836 2.07595,3.49749 -0.37471,1.06916 -1.90474,1.23607 -3.42702,0.37634 -1.522298,-0.85973 -2.457724,-2.42289 -2.083016,-3.49205 0.07028,-0.20044 0.174268,-0.3693 0.318513,-0.50564 z m 10.796943,-5.42686 c 0.45183,-0.33816 0.96451,-0.39916 1.44212,-0.10208 0.95522,0.59416 1.39169,2.3906 0.96809,4.0169 -0.4236,1.62627 -1.53833,2.46775 -2.49356,1.87358 -0.95521,-0.59415 -1.39171,-2.39063 -0.9681,-4.01691 0.21182,-0.81313 0.59965,-1.43332 1.05145,-1.77149 z"
       id="path3924-1"
       sodipodi:nodetypes="cccccccccccssssccssssccssssccccccccccccssssccssssccsssssccssssccccccccccccssssccsssssccsssssccsssssccsssssccsssssccssssc" />
  </g>
</svg>
